<svg xmlns="http://www.w3.org/2000/svg" width="1024" height="1024" viewBox="0 0 1024 1024" version="1.1"><path d="M 505.754 137.750 C 502.266 141.672, 501.875 146.708, 502.191 183.678 C 502.489 218.556, 502.575 219.958, 504.590 222.678 C 509.042 228.690, 517.079 229.286, 522.955 224.040 L 526 221.322 526 181.652 L 526 141.983 523.335 138.991 C 520.878 136.234, 520.147 136, 513.990 136 C 508.888 136, 506.942 136.413, 505.754 137.750 M 344.750 180.818 C 342.609 182.923, 342 184.459, 342 187.754 C 342 191.966, 344.779 200, 346.236 200 C 346.656 200, 347 200.863, 347 201.917 C 347 202.971, 347.337 203.983, 347.750 204.167 C 348.163 204.350, 350.109 207.650, 352.076 211.500 C 358.674 224.414, 361.495 229.498, 362.250 229.833 C 362.663 230.017, 363 230.807, 363 231.591 C 363 233.257, 368.150 243.344, 369.250 243.833 C 369.663 244.017, 370 245.029, 370 246.083 C 370 247.138, 370.420 248, 370.933 248 C 371.446 248, 372.118 248.787, 372.427 249.750 C 376.334 261.930, 397.976 260.740, 397.995 248.345 C 397.999 245.686, 394.740 237.675, 392.972 236 C 392.682 235.725, 391.601 233.588, 390.571 231.250 C 389.540 228.912, 388.315 227, 387.848 227 C 387.382 227, 387 226.325, 387 225.500 C 387 224.675, 386.550 224, 386 224 C 385.450 224, 385 223.392, 385 222.649 C 385 221.171, 380.235 211.805, 379.074 211 C 378.677 210.725, 377.486 208.364, 376.426 205.754 C 375.367 203.143, 374.163 201.006, 373.750 201.004 C 373.337 201.002, 373 200.100, 373 199 C 373 197.900, 372.656 197, 372.236 197 C 371.433 197, 368 189.701, 368 187.993 C 368 187.447, 367.550 187, 367 187 C 366.450 187, 366 186.378, 366 185.619 C 366 184.859, 364.565 182.834, 362.810 181.119 C 359.929 178.302, 359.034 178.006, 353.560 178.057 C 348.361 178.106, 347.109 178.498, 344.750 180.818 M 667.250 180.346 C 666.013 181.569, 665 183.085, 665 183.714 C 665 184.343, 664.438 185.452, 663.750 186.179 C 661.870 188.166, 657 197.772, 657 199.493 C 657 200.322, 656.550 201, 656 201 C 655.450 201, 655 201.675, 655 202.500 C 655 203.325, 654.550 204, 654 204 C 653.450 204, 653 204.900, 653 206 C 653 207.100, 652.640 208, 652.201 208 C 651.761 208, 650.834 209.570, 650.140 211.490 C 649.446 213.409, 648.342 215.546, 647.686 216.240 C 646.127 217.888, 641 228.196, 641 229.681 C 641 230.315, 640.663 230.983, 640.250 231.167 C 639.120 231.669, 634 241.766, 634 243.493 C 634 244.322, 633.550 245, 633 245 C 632.450 245, 632 246.350, 632 248 C 632 249.650, 632.450 251, 633 251 C 633.550 251, 634 252.109, 634 253.465 C 634 256.827, 636.656 258, 644.269 258 C 650.116 258, 650.900 257.741, 653.335 255.009 C 654.801 253.363, 656 251.563, 656 251.009 C 656 250.454, 656.450 250, 657 250 C 657.550 250, 658 249.541, 658 248.980 C 658 248.419, 659.125 246.178, 660.500 244 C 661.875 241.822, 663 239.356, 663 238.520 C 663 237.684, 663.450 237, 664 237 C 664.550 237, 665 236.325, 665 235.500 C 665 234.675, 665.450 234, 666 234 C 666.550 234, 667.014 233.213, 667.032 232.250 C 667.049 231.287, 667.724 229.626, 668.532 228.559 C 669.339 227.491, 670 226.010, 670 225.267 C 670 224.524, 670.900 222.950, 672 221.770 C 673.100 220.589, 674 218.808, 674 217.811 C 674 216.815, 674.363 216, 674.808 216 C 675.252 216, 676.449 214.088, 677.469 211.750 C 678.488 209.412, 679.611 207.275, 679.963 207 C 680.577 206.521, 682.135 203.266, 685.110 196.250 C 685.868 194.463, 686.828 193, 687.244 193 C 687.660 193, 688 191.075, 688 188.723 C 688 185.385, 687.353 183.738, 685.056 181.223 C 682.320 178.226, 681.670 178.004, 675.806 178.060 C 670.678 178.110, 669.080 178.537, 667.250 180.346 M 491 261.247 C 483.025 261.765, 476.350 262.597, 476.167 263.095 C 475.983 263.593, 474.071 264, 471.917 264 C 469.762 264, 468 264.450, 468 265 C 468 265.550, 466.452 266, 464.559 266 C 462.666 266, 460.827 266.472, 460.470 267.048 C 460.114 267.624, 459.075 268.010, 458.161 267.905 C 455.554 267.606, 448.014 269.169, 447.419 270.131 C 447.124 270.609, 445.585 271, 444 271 C 442.415 271, 440.840 271.450, 440.500 272 C 440.160 272.550, 438.784 273, 437.441 273 C 436.098 273, 434.996 273.337, 434.991 273.750 C 434.987 274.163, 432.287 275.341, 428.991 276.368 C 425.696 277.395, 423 278.633, 423 279.118 C 423 279.603, 422.100 280, 421 280 C 419.900 280, 419 280.450, 419 281 C 419 281.550, 418.506 282, 417.901 282 C 416.066 282, 409.596 285.293, 408 287.039 C 407.175 287.942, 405.366 288.960, 403.980 289.301 C 402.594 289.643, 400.569 290.728, 399.480 291.711 C 398.391 292.695, 396.150 294.175, 394.500 295 C 392.850 295.825, 390.905 297.063, 390.179 297.750 C 389.452 298.438, 388.552 299.001, 388.179 299.001 C 387.805 299.002, 386.193 300.127, 384.594 301.501 C 382.996 302.876, 381.376 304, 380.993 304 C 380.610 304, 378.884 305.350, 377.157 307 C 375.431 308.650, 373.777 310, 373.482 310 C 371.414 310, 340 341.831, 340 343.928 C 340 344.518, 339.621 345, 339.157 345 C 338.694 345, 337.467 346.575, 336.430 348.500 C 335.393 350.425, 334.198 352, 333.773 352 C 333.348 352, 333 352.675, 333 353.500 C 333 354.325, 332.601 355, 332.114 355 C 331.627 355, 330.531 356.462, 329.680 358.250 C 328.829 360.038, 327.305 362.400, 326.295 363.500 C 325.285 364.600, 323.118 368.200, 321.479 371.500 C 319.841 374.800, 318.163 377.650, 317.750 377.833 C 317.337 378.017, 317 378.992, 317 380 C 317 381.008, 316.663 381.983, 316.250 382.167 C 315.222 382.623, 312 389.726, 312 391.534 C 312 392.340, 311.550 393, 311 393 C 310.450 393, 310 394.125, 310 395.500 C 310 396.875, 309.660 398, 309.243 398 C 308.326 398, 306.301 404.267, 305.402 409.890 C 305.040 412.151, 304.352 414, 303.872 414 C 303.392 414, 303 415.575, 303 417.500 C 303 419.425, 302.550 421, 302 421 C 301.450 421, 301 422.548, 301 424.441 C 301 426.334, 300.590 428.135, 300.089 428.445 C 299.589 428.754, 298.860 432.837, 298.470 437.519 C 298.080 442.200, 297.365 446.275, 296.880 446.574 C 296.396 446.873, 296 450.016, 296 453.559 C 296 457.186, 295.563 460, 295 460 C 294.375 460, 294 466, 294 476 C 294 486, 294.375 492, 295 492 C 295.588 492, 296 495.480, 296 500.441 C 296 505.084, 296.450 509.160, 297 509.500 C 297.550 509.840, 298.027 512.454, 298.060 515.309 C 298.092 518.164, 298.571 522.750, 299.124 525.500 C 299.677 528.250, 300.373 532.188, 300.670 534.250 C 300.967 536.313, 301.613 538, 302.105 538 C 302.597 538, 303 539.125, 303 540.500 C 303 541.875, 303.450 543, 304 543 C 304.550 543, 304.998 544.237, 304.995 545.750 C 304.990 548.812, 308.080 558.313, 309.250 558.833 C 309.663 559.017, 310 560.254, 310 561.583 C 310 562.913, 310.450 564, 311 564 C 311.550 564, 312 564.660, 312 565.466 C 312 567.274, 315.222 574.377, 316.250 574.833 C 316.663 575.017, 317 576.029, 317 577.083 C 317 578.138, 317.450 579, 318 579 C 318.550 579, 319 579.675, 319 580.500 C 319 581.325, 319.525 582, 320.167 582 C 320.808 582, 321.042 582.291, 320.686 582.648 C 319.992 583.341, 323.623 590.576, 325.834 592.905 C 326.567 593.678, 327.579 595.253, 328.081 596.405 C 329.443 599.527, 331.287 602.274, 333.250 604.103 C 334.212 605, 335 606.136, 335 606.628 C 335 607.119, 336.125 608.734, 337.500 610.217 C 338.875 611.699, 340 613.154, 340 613.449 C 340 614.074, 343.443 618.212, 346.949 621.800 C 349.498 624.410, 354 630.688, 354 631.634 C 354 631.933, 356.025 634.146, 358.500 636.552 C 360.975 638.957, 363 641.631, 363 642.494 C 363 643.357, 363.675 644.322, 364.500 644.638 C 365.325 644.955, 366 645.756, 366 646.418 C 366 647.081, 366.802 648.495, 367.783 649.561 C 368.763 650.628, 370.359 653.188, 371.330 655.250 C 372.300 657.312, 373.523 659, 374.047 659 C 374.571 659, 375 659.900, 375 661 C 375 662.100, 375.450 663, 376 663 C 376.550 663, 377 663.900, 377 665 C 377 666.100, 377.375 667, 377.833 667 C 378.291 667, 379.528 669.700, 380.582 673 C 381.637 676.300, 382.837 679, 383.250 679 C 383.662 679, 384 680.125, 384 681.500 C 384 682.875, 384.525 684, 385.167 684 C 385.808 684, 386.092 684.241, 385.798 684.535 C 385.504 684.830, 385.931 687.867, 386.749 691.285 C 387.566 694.703, 388.447 700.087, 388.706 703.250 C 388.965 706.413, 389.588 709, 390.089 709 C 390.590 709, 391 711.700, 391 715 C 391 718.300, 391.387 721, 391.861 721 C 392.334 721, 392.997 723.328, 393.334 726.173 C 393.671 729.019, 394.409 731.809, 394.973 732.373 C 395.538 732.938, 396 734.210, 396 735.200 C 396 736.190, 396.450 737, 397 737 C 397.550 737, 398 737.900, 398 739 C 398 740.100, 398.450 741, 399 741 C 399.550 741, 400 741.534, 400 742.186 C 400 744.320, 412.420 755.444, 417.518 757.877 C 420.258 759.184, 423.581 760.759, 424.902 761.377 C 428.561 763.089, 602.178 762.965, 602.750 761.250 C 602.979 760.563, 604.254 760, 605.583 760 C 606.913 760, 608 759.550, 608 759 C 608 758.450, 608.900 758, 610 758 C 611.100 758, 612 757.550, 612 757 C 612 756.450, 612.795 756, 613.767 756 C 615.742 756, 626 747.438, 626 745.790 C 626 745.209, 626.810 744.007, 627.801 743.117 C 628.792 742.228, 630.388 739.700, 631.349 737.500 C 632.311 735.300, 633.525 732.719, 634.048 731.764 C 634.572 730.809, 635 729.121, 635 728.014 C 635 726.906, 635.450 726, 636 726 C 636.550 726, 637 724.002, 637 721.559 C 637 719.116, 637.384 716.881, 637.852 716.591 C 638.684 716.077, 640.259 704.691, 640.107 700.300 C 640.065 699.089, 640.474 697.825, 641.015 697.491 C 641.557 697.156, 642 695.559, 642 693.941 C 642 692.323, 642.450 691, 643 691 C 643.550 691, 644 689.902, 644 688.559 C 644 687.216, 644.450 685.840, 645 685.500 C 645.550 685.160, 646.003 684.121, 646.006 683.191 C 646.010 682.261, 646.685 680.211, 647.506 678.636 C 648.328 677.060, 649 674.923, 649 673.886 C 649 672.849, 649.450 672, 650 672 C 650.550 672, 651 671.100, 651 670 C 651 668.900, 651.337 667.998, 651.750 667.996 C 652.163 667.994, 653.377 665.857, 654.449 663.246 C 655.521 660.636, 657.144 657.698, 658.054 656.717 C 658.965 655.736, 660.563 653.154, 661.605 650.978 C 662.647 648.803, 663.837 647.018, 664.250 647.011 C 664.663 647.005, 665 646.553, 665 646.008 C 665 645.106, 667.529 641.776, 670.750 638.438 C 671.438 637.726, 672 636.856, 672 636.505 C 672 636.154, 673.571 634.209, 675.491 632.183 C 677.412 630.157, 678.987 628.037, 678.991 627.471 C 678.996 626.905, 679.938 625.780, 681.085 624.971 C 682.231 624.162, 683.807 622.283, 684.586 620.797 C 685.365 619.310, 687.577 616.564, 689.502 614.696 C 691.426 612.827, 693 610.818, 693 610.232 C 693 609.646, 693.378 609.017, 693.841 608.833 C 695.013 608.369, 702 598.244, 702 597.010 C 702 596.455, 702.337 595.998, 702.750 595.996 C 703.163 595.994, 704.332 593.969, 705.349 591.496 C 706.366 589.023, 707.604 587, 708.099 587 C 708.595 587, 709 586.325, 709 585.500 C 709 584.675, 709.450 584, 710 584 C 710.550 584, 711.014 583.212, 711.032 582.250 C 711.049 581.288, 711.724 579.626, 712.532 578.559 C 713.339 577.491, 714 575.804, 714 574.809 C 714 573.814, 714.340 573, 714.756 573 C 715.172 573, 716.117 571.538, 716.857 569.750 C 717.596 567.962, 718.831 565.082, 719.601 563.349 C 720.370 561.616, 721 559.253, 721 558.099 C 721 556.944, 721.450 556, 722 556 C 722.550 556, 723 554.650, 723 553 C 723 551.350, 723.450 550, 724 550 C 724.550 550, 725 548.902, 725 547.559 C 725 546.216, 725.415 544.862, 725.922 544.548 C 726.428 544.235, 727.156 541.059, 727.538 537.489 C 727.920 533.920, 728.631 531, 729.116 531 C 729.602 531, 730 528.975, 730 526.500 C 730 524.025, 730.450 522, 731 522 C 731.550 522, 732 519.615, 732 516.700 C 732 513.785, 732.506 510.894, 733.124 510.276 C 734.658 508.742, 734.605 451.702, 733.069 451.190 C 732.448 450.983, 732 447.935, 732 443.917 C 732 439.972, 731.570 437, 731 437 C 730.450 437, 730 434.525, 730 431.500 C 730 428.475, 729.602 426, 729.115 426 C 728.629 426, 727.922 423.532, 727.545 420.516 C 727.168 417.499, 726.442 414.773, 725.930 414.457 C 725.419 414.141, 725 412.559, 725 410.941 C 725 409.323, 724.550 408, 724 408 C 723.450 408, 723 406.875, 723 405.500 C 723 404.125, 722.550 403, 722 403 C 721.450 403, 721.002 402.212, 721.005 401.250 C 721.010 399.339, 717.860 389.806, 716.956 389 C 716.065 388.205, 713 381.309, 713 380.099 C 713 379.494, 712.550 379, 712 379 C 711.450 379, 711 378.100, 711 377 C 711 375.900, 710.550 375, 710 375 C 709.450 375, 709 374.137, 709 373.083 C 709 372.029, 708.663 371.017, 708.250 370.833 C 707.837 370.650, 706.207 367.913, 704.627 364.750 C 703.047 361.587, 701.360 359, 700.877 359 C 700.395 359, 700 358.433, 700 357.740 C 700 357.047, 698.875 355.266, 697.500 353.783 C 696.125 352.301, 695 350.618, 695 350.044 C 695 349.470, 694.663 348.997, 694.250 348.993 C 693.837 348.989, 692.438 347.427, 691.140 345.520 C 689.842 343.614, 687.672 340.805, 686.318 339.277 C 684.964 337.750, 682.708 335.034, 681.304 333.242 C 678.316 329.430, 671.207 322, 670.547 322 C 670.086 322, 668.472 320.575, 661.201 313.750 C 659.004 311.688, 656.731 310, 656.151 310 C 655.571 310, 653.567 308.425, 651.697 306.500 C 649.828 304.575, 647.781 303, 647.149 303 C 646.517 303, 646 302.601, 646 302.114 C 646 301.627, 644.381 300.389, 642.403 299.364 C 640.425 298.339, 637.950 297.056, 636.903 296.513 C 635.856 295.970, 635 295.182, 635 294.763 C 635 294.343, 634.325 294, 633.500 294 C 632.675 294, 632 293.618, 632 293.152 C 632 292.685, 630.087 291.454, 627.750 290.415 C 625.413 289.376, 622.628 287.733, 621.561 286.763 C 620.495 285.793, 618.834 285, 617.870 285 C 616.907 285, 615.861 284.585, 615.548 284.077 C 615.234 283.569, 613.632 282.858, 611.989 282.497 C 610.345 282.136, 609 281.427, 609 280.921 C 609 280.414, 608.100 280, 607 280 C 605.900 280, 604.996 279.663, 604.992 279.250 C 604.982 278.295, 600.094 276.002, 598.051 275.994 C 597.198 275.990, 595.211 275.315, 593.636 274.494 C 592.060 273.672, 589.923 273, 588.886 273 C 587.849 273, 587 272.550, 587 272 C 587 271.450, 586.094 271, 584.986 271 C 583.879 271, 582.191 270.603, 581.236 270.118 C 578.636 268.796, 571.055 266.864, 566.250 266.299 C 563.913 266.024, 562 265.394, 562 264.899 C 562 264.405, 559.788 264, 557.083 264 C 554.379 264, 552.017 263.607, 551.833 263.127 C 551.467 262.169, 520.744 259.909, 511.372 260.152 C 508.142 260.235, 498.975 260.728, 491 261.247 M 503.812 282.511 C 503.434 282.895, 498.484 283.584, 492.812 284.043 C 481.875 284.927, 477.649 285.525, 472 286.989 C 470.075 287.488, 464.995 288.665, 460.711 289.606 C 456.427 290.547, 452.688 291.696, 452.402 292.159 C 452.116 292.621, 451.132 293, 450.216 293 C 447.865 293, 435.026 298.027, 431.846 300.193 C 430.386 301.187, 428.955 302, 428.665 302 C 426.723 302, 413.882 308.921, 405.807 314.320 C 395.108 321.473, 395.309 321.325, 389 326.731 C 386.525 328.851, 382.137 332.521, 379.250 334.886 C 376.363 337.251, 374 339.600, 374 340.105 C 374 340.610, 371.129 344.056, 367.619 347.762 C 361.089 354.657, 349.961 368.310, 348.676 371 C 348.282 371.825, 346.174 375.650, 343.990 379.500 C 341.806 383.350, 339.056 388.525, 337.877 391 C 332.974 401.300, 330 408.110, 330 409.039 C 330 409.582, 329.582 410.809, 329.072 411.764 C 327.657 414.412, 325 423.622, 325 425.879 C 325 426.981, 324.598 428.131, 324.106 428.435 C 323.147 429.027, 323.137 429.085, 319.972 451 C 318.218 463.147, 317.965 468.502, 318.413 484 C 318.707 494.175, 319.663 507, 320.537 512.500 C 321.411 518, 322.371 524.190, 322.669 526.256 C 322.967 528.322, 323.614 530.261, 324.106 530.565 C 324.598 530.869, 325 532.415, 325 534 C 325 535.585, 325.399 537.129, 325.887 537.430 C 326.374 537.731, 327.080 539.613, 327.455 541.612 C 327.830 543.611, 328.519 545.978, 328.987 546.873 C 330.661 550.079, 334 557.993, 334 558.757 C 334 560.037, 343.969 578.920, 347.542 584.408 C 354.320 594.819, 365.597 609.044, 376.422 620.841 C 382.987 627.994, 392 640.772, 392 642.925 C 392 643.516, 392.450 644, 393 644 C 393.550 644, 394 644.900, 394 646 C 394 647.100, 394.344 648, 394.764 648 C 395.567 648, 399 655.299, 399 657.007 C 399 657.553, 399.450 658, 400 658 C 400.550 658, 401 658.900, 401 660 C 401 661.100, 401.344 662, 401.764 662 C 402.794 662, 406 669.528, 406 671.948 C 406 673.012, 406.450 674.160, 407 674.500 C 407.550 674.840, 408 676.190, 408 677.500 C 408 678.810, 408.400 680.129, 408.890 680.432 C 409.379 680.734, 410.020 682.448, 410.314 684.241 C 410.608 686.033, 411.372 689.750, 412.010 692.500 C 412.649 695.250, 413.147 698.945, 413.118 700.711 C 413.088 702.477, 413.499 704.191, 414.032 704.520 C 414.564 704.849, 415 707.341, 415 710.059 C 415 712.777, 415.450 715, 416 715 C 416.550 715, 417 716.548, 417 718.441 C 417 720.334, 417.392 722.124, 417.871 722.420 C 418.350 722.716, 418.999 724.247, 419.315 725.823 C 420.053 729.515, 426.485 735.947, 430.177 736.685 C 431.753 737.001, 433.284 737.650, 433.580 738.129 C 434.296 739.287, 594.716 739.269, 595.432 738.111 C 595.734 737.622, 597.149 736.928, 598.577 736.570 C 603.110 735.432, 605.305 732.551, 612.081 718.844 C 612.531 717.933, 613.210 713.758, 613.590 709.566 C 613.970 705.374, 614.668 701.705, 615.140 701.413 C 615.613 701.121, 616 699.109, 616 696.941 C 616 694.773, 616.450 693, 617 693 C 617.550 693, 618 691.425, 618 689.500 C 618 687.575, 618.392 686, 618.871 686 C 619.350 686, 620.041 683.750, 620.406 681 C 620.770 678.250, 621.503 676, 622.034 676 C 622.565 676, 623 675.190, 623 674.199 C 623 671.965, 625.235 667.018, 626.250 667.008 C 626.663 667.004, 627.002 666.212, 627.004 665.250 C 627.008 663.756, 629.635 658.203, 636.737 644.676 C 637.553 643.123, 638.845 641.613, 639.610 641.319 C 640.374 641.026, 641.009 640.047, 641.020 639.143 C 641.046 637.100, 656.610 617.220, 668.927 603.500 C 670.460 601.792, 678.337 590.283, 681.500 585.129 C 682.050 584.233, 682.725 583.275, 683 582.999 C 683.625 582.374, 686.053 577.902, 691.688 567 C 695.552 559.525, 701.235 545.295, 702.671 539.500 C 702.944 538.400, 703.542 536.600, 704 535.500 C 705.856 531.044, 708.183 519.841, 710.232 505.500 C 711.641 495.645, 711.607 463, 710.180 453.500 C 708.144 439.954, 704.835 424.501, 703.734 423.401 C 703.330 422.997, 703 421.611, 703 420.320 C 703 419.029, 702.605 417.191, 702.123 416.236 C 701.640 415.281, 700.688 412.700, 700.008 410.500 C 698.823 406.673, 698.018 404.639, 694.368 396.250 C 687.725 380.981, 677.077 363.924, 667.036 352.465 C 665.091 350.246, 662.375 347.090, 661 345.452 C 658.470 342.439, 644.690 330.033, 639.891 326.449 C 638.456 325.377, 634.763 322.587, 631.684 320.250 C 628.605 317.913, 625.654 316, 625.126 316 C 624.598 316, 624.017 315.654, 623.833 315.231 C 623.446 314.337, 610.131 306.327, 605 303.900 C 592.099 297.800, 587.695 295.881, 583.380 294.482 C 580.696 293.611, 577.600 292.521, 576.500 292.060 C 570.292 289.454, 551.188 285.624, 536 283.941 C 523.429 282.548, 504.601 281.712, 503.812 282.511 M 227 295 C 227 295.550, 226.518 296, 225.929 296 C 223.389 296, 222 299.028, 222 304.562 C 222 309.501, 222.358 310.575, 224.662 312.555 C 226.127 313.813, 229.052 315.621, 231.162 316.573 C 233.273 317.525, 235 318.685, 235 319.152 C 235 319.618, 235.480 320, 236.067 320 C 236.653 320, 238.608 321.125, 240.411 322.500 C 242.214 323.875, 244.386 325, 245.237 325 C 246.089 325, 247.020 325.609, 247.305 326.353 C 247.591 327.098, 249.631 328.648, 251.839 329.799 C 258.170 333.099, 260.255 334.374, 262.388 336.250 C 263.482 337.212, 264.710 338, 265.117 338 C 265.524 338, 266.471 338.563, 267.221 339.250 C 269.078 340.952, 271.831 342.679, 276 344.756 C 277.925 345.715, 279.650 346.837, 279.833 347.250 C 280.017 347.663, 280.804 348, 281.583 348 C 282.363 348, 283 348.340, 283 348.756 C 283 349.172, 284.297 350.086, 285.883 350.788 C 289.361 352.328, 292.670 351.132, 297.727 346.507 C 300.527 343.946, 301 342.841, 301 338.857 C 301 334.856, 300.500 333.700, 297.452 330.652 C 295.501 328.701, 293.026 326.826, 291.952 326.485 C 290.879 326.144, 290 325.446, 290 324.933 C 290 324.420, 289.325 324, 288.500 324 C 287.675 324, 287 323.638, 287 323.196 C 287 322.171, 277.480 317, 275.591 317 C 274.807 317, 274.017 316.625, 273.833 316.167 C 273.398 315.080, 262.256 308, 260.981 308 C 260.441 308, 260 307.640, 260 307.201 C 260 306.761, 258.430 305.834, 256.510 305.140 C 254.591 304.446, 252.454 303.332, 251.760 302.663 C 251.067 301.995, 247.800 300.110, 244.500 298.474 C 241.200 296.838, 238.350 295.163, 238.167 294.750 C 237.661 293.613, 227 293.852, 227 295 M 791 295 C 791 295.550, 790.273 296, 789.385 296 C 787.541 296, 778 300.990, 778 301.954 C 778 302.304, 775.975 303.425, 773.500 304.446 C 771.025 305.466, 769 306.684, 769 307.151 C 769 307.618, 768.325 308, 767.500 308 C 766.675 308, 765.999 308.337, 765.998 308.750 C 765.996 309.163, 763.521 310.793, 760.498 312.373 C 757.474 313.953, 755 315.640, 755 316.123 C 755 316.605, 754.325 317, 753.500 317 C 752.675 317, 752 317.450, 752 318 C 752 318.550, 751.431 319, 750.737 319 C 750.042 319, 747.120 320.585, 744.243 322.522 C 741.366 324.460, 737.885 326.473, 736.507 326.997 C 729.491 329.665, 727.935 341.355, 733.844 347.002 C 736.381 349.426, 737.846 350, 741.491 350 C 743.971 350, 746 349.550, 746 349 C 746 348.450, 746.745 348, 747.656 348 C 748.566 348, 750.786 346.875, 752.589 345.500 C 754.392 344.125, 756.347 343, 756.933 343 C 757.520 343, 758 342.633, 758 342.185 C 758 341.737, 759.575 340.619, 761.500 339.701 C 763.425 338.783, 765 337.575, 765 337.016 C 765 336.457, 765.900 336, 767 336 C 768.100 336, 769 335.550, 769 335 C 769 334.450, 769.675 334, 770.500 334 C 771.325 334, 772 333.618, 772 333.152 C 772 332.685, 773.800 331.492, 776 330.500 C 778.200 329.508, 780 328.315, 780 327.848 C 780 327.382, 780.900 327, 782 327 C 783.100 327, 784 326.618, 784 326.152 C 784 325.685, 785.800 324.492, 788 323.500 C 790.200 322.508, 792 321.315, 792 320.848 C 792 320.382, 792.675 320, 793.500 320 C 794.325 320, 795 319.550, 795 319 C 795 318.450, 795.459 318, 796.020 318 C 798.524 318, 805.040 312.719, 806.605 309.420 C 808.098 306.273, 808.153 305.313, 807.021 302.183 C 805.614 298.290, 803.780 296, 802.071 296 C 801.482 296, 801 295.550, 801 295 C 801 294.450, 798.750 294, 796 294 C 793.250 294, 791 294.450, 791 295 M 601.319 446.884 C 591.649 453.889, 591.026 469.281, 600.155 475.608 C 608.556 481.429, 621.411 477.980, 625.904 468.698 C 628.401 463.540, 628.536 460.219, 626.452 455.232 C 621.932 444.413, 610.138 440.496, 601.319 446.884 M 418.500 447.861 C 414.079 450.591, 411.929 453.387, 410.950 457.677 C 408.415 468.778, 416.274 480, 426.583 480 C 432.249 480, 435.081 478.825, 439.892 474.479 C 447.001 468.056, 447.682 460.124, 441.709 453.322 C 435.682 446.456, 424.886 443.916, 418.500 447.861 M 180.500 456.371 C 175.360 462.151, 174.549 467.824, 178.251 472.093 C 182.458 476.943, 182.914 477, 217.781 477 C 245.259 477, 251.197 476.748, 253.747 475.476 C 261.442 471.637, 262.192 462.251, 255.362 455.250 C 254.429 454.294, 245.728 454.014, 218.321 454.061 L 182.500 454.122 180.500 456.371 M 771.281 456.494 C 770.061 457.798, 768.557 460.873, 767.939 463.326 C 766.661 468.405, 767.552 470.972, 771.907 474.749 C 774.491 476.990, 774.625 476.998, 810 476.995 C 844.006 476.993, 845.641 476.906, 848.857 474.946 C 850.703 473.820, 852.443 472.022, 852.723 470.950 C 853.004 469.877, 853.631 469, 854.117 469 C 854.602 469, 855 467.372, 855 465.382 C 855 462.513, 854.197 460.961, 851.118 457.882 L 847.235 454 810.368 454.061 L 773.500 454.122 771.281 456.494 M 535.286 488.095 C 526.234 496.344, 522.205 498.411, 516.530 497.718 C 511.160 497.063, 508.623 495.858, 501.500 490.580 C 495 485.764, 492.937 485.166, 490.974 487.532 C 489.980 488.729, 489.953 489.901, 490.850 492.892 C 493.875 502.990, 507.751 513.033, 518.616 512.988 C 527.130 512.953, 538.952 507.193, 544.321 500.465 C 549.502 493.971, 551.682 485.082, 548.800 482.200 C 546.237 479.637, 543.034 481.034, 535.286 488.095 M 285.791 582.988 C 284.302 583.437, 281.757 584.749, 280.137 585.902 C 278.517 587.056, 276.698 588, 276.096 588 C 275.493 588, 275 588.525, 275 589.167 C 275 589.808, 274.709 590.042, 274.352 589.686 C 273.584 588.917, 266 593.002, 266 594.184 C 266 594.633, 265.316 595, 264.480 595 C 263.644 595, 261.282 596.023, 259.230 597.273 C 257.179 598.523, 254.262 600.174, 252.750 600.942 C 251.238 601.710, 250 602.663, 250 603.061 C 250 603.458, 248.790 604.087, 247.311 604.458 C 244.565 605.147, 238.768 608.796, 238.167 610.214 C 237.983 610.646, 237.197 611, 236.419 611 C 235.641 611, 232.641 612.680, 229.752 614.733 C 223.366 619.271, 222 620.539, 222 621.929 C 222 622.518, 221.550 623, 221 623 C 217.525 623, 222.530 636.370, 226.393 637.407 C 230.437 638.493, 236.851 638.006, 238.357 636.500 C 239.182 635.675, 240.564 635, 241.429 635 C 242.293 635, 243 634.550, 243 634 C 243 633.450, 243.637 633, 244.417 633 C 245.196 633, 245.983 632.663, 246.167 632.250 C 246.350 631.837, 248.300 630.604, 250.500 629.510 C 252.700 628.415, 254.725 627.290, 255 627.010 C 255.275 626.729, 256.400 626.017, 257.500 625.426 C 263.616 622.143, 266.554 620.435, 267 619.904 C 267.275 619.577, 270.762 617.582, 274.750 615.473 C 278.738 613.363, 282 611.305, 282 610.898 C 282 610.492, 283.350 609.862, 285 609.500 C 286.650 609.138, 288 608.427, 288 607.921 C 288 607.414, 288.900 607, 290 607 C 291.100 607, 292 606.550, 292 606 C 292 605.450, 292.597 605, 293.326 605 C 294.935 605, 299 600.834, 299 599.186 C 299 598.533, 299.450 598, 300 598 C 300.550 598, 301 596.425, 301 594.500 C 301 592.575, 300.550 591, 300 591 C 299.450 591, 298.986 590.212, 298.968 589.250 C 298.928 587.027, 297.113 584.653, 294.316 583.163 C 291.847 581.849, 289.717 581.805, 285.791 582.988 M 736.487 583.248 C 730.814 586.367, 728.221 592.890, 730.493 598.328 C 731.336 600.348, 732.450 602, 732.968 602 C 733.486 602, 734.960 603.051, 736.244 604.335 C 737.528 605.619, 740.473 607.505, 742.789 608.527 C 745.105 609.549, 747 610.748, 747 611.192 C 747 611.637, 747.675 612, 748.500 612 C 749.325 612, 750 612.349, 750 612.776 C 750 613.203, 752.021 614.440, 754.491 615.526 C 756.960 616.612, 758.985 617.837, 758.991 618.250 C 758.996 618.663, 759.675 619, 760.500 619 C 761.325 619, 762 619.450, 762 620 C 762 620.550, 762.900 621, 764 621 C 765.100 621, 766 621.441, 766 621.981 C 766 622.520, 767.125 623.244, 768.500 623.589 C 769.875 623.934, 771 624.508, 771 624.864 C 771 625.220, 772.462 626.148, 774.250 626.926 C 776.038 627.703, 777.725 628.611, 778 628.943 C 779.161 630.344, 784.048 633, 785.465 633 C 786.309 633, 787 633.450, 787 634 C 787 634.550, 787.638 635, 788.417 635 C 789.196 635, 789.991 635.472, 790.183 636.048 C 790.375 636.625, 793 637.346, 796.016 637.651 C 800.463 638.101, 801.896 637.856, 803.593 636.353 C 808.724 631.810, 809.388 625.610, 805.364 619.804 C 803.914 617.712, 802.348 616, 801.883 616 C 801.419 616, 798.577 614.425, 795.567 612.500 C 792.558 610.575, 789.624 609, 789.048 609 C 788.472 609, 788 608.550, 788 608 C 788 607.450, 787.433 607, 786.740 607 C 786.047 607, 784.356 605.987, 782.983 604.750 C 779.943 602.011, 770.584 597, 768.507 597 C 767.678 597, 767 596.634, 767 596.187 C 767 595.739, 765.425 594.755, 763.500 594 C 761.575 593.245, 760 592.291, 760 591.881 C 760 591.470, 759.022 590.824, 757.827 590.445 C 756.632 590.066, 754.747 588.910, 753.638 587.878 C 752.530 586.845, 751.033 586, 750.311 586 C 749.590 586, 749 585.599, 749 585.108 C 749 583.185, 739.241 581.733, 736.487 583.248 M 580.500 782 C 580.139 782.583, 574.490 783, 566.941 783 C 558.980 783, 554 783.385, 554 784 C 554 784.605, 549.722 785, 543.167 785 C 537.208 785, 531.998 785.337, 531.589 785.750 C 530.810 786.534, 490.158 788.802, 462.250 789.618 C 452.946 789.890, 446 790.501, 446 791.047 C 446 791.588, 441.664 792, 435.973 792 C 426.119 792, 425.887 792.054, 422.473 795.161 C 419.337 798.015, 419 798.840, 419 803.661 C 419 806.597, 419.398 809, 419.883 809 C 420.369 809, 421.011 809.933, 421.309 811.074 C 421.607 812.215, 422.785 813.393, 423.926 813.691 C 425.067 813.989, 426 814.631, 426 815.117 C 426 816.425, 463.729 816.247, 464.540 814.935 C 464.919 814.322, 468.028 813.945, 471.849 814.047 C 483.468 814.357, 517 812.721, 517 811.844 C 517 811.380, 522.400 811, 529 811 C 536.333 811, 541 810.611, 541 810 C 541 809.379, 546.500 809, 555.500 809 C 564.500 809, 570 808.621, 570 808 C 570 807.381, 575.366 807, 584.099 807 C 595.002 807, 598.969 806.634, 601.599 805.386 C 603.469 804.498, 605 803.373, 605 802.886 C 605 802.399, 605.686 802, 606.525 802 C 608.681 802, 610.255 797.239, 609.720 792.337 C 609.245 787.989, 605.444 783, 602.604 783 C 601.787 783, 600.840 782.550, 600.500 782 C 600.159 781.448, 595.676 781, 590.500 781 C 585.324 781, 580.841 781.448, 580.500 782 M 578.588 829.750 C 577.871 830.471, 538.577 832.562, 505.750 833.627 C 497.058 833.909, 490 834.555, 490 835.069 C 490 835.592, 484.742 836, 478 836 C 471.400 836, 466 836.396, 466 836.880 C 466 837.363, 457.563 837.951, 447.250 838.185 C 427.349 838.636, 425.796 838.983, 421.262 844 C 416.583 849.177, 419.765 862, 425.729 862 C 426.758 862, 428.092 862.492, 428.694 863.094 C 429.399 863.799, 432.048 863.962, 436.144 863.551 C 439.640 863.201, 450.038 862.679, 459.250 862.391 C 468.590 862.100, 476 861.455, 476 860.934 C 476 860.403, 481.588 860, 488.941 860 C 496.865 860, 502.132 859.595, 502.528 858.955 C 502.883 858.380, 505.273 857.988, 507.837 858.086 C 517.908 858.467, 560 856.671, 560 855.860 C 560 855.387, 566.300 855, 574 855 C 582.667 855, 588 854.619, 588 854 C 588 853.436, 590.833 853, 594.500 853 C 598.167 853, 601 852.564, 601 852 C 601 851.450, 601.822 851, 602.826 851 C 603.830 851, 605.719 849.864, 607.023 848.475 C 608.922 846.454, 609.406 844.825, 609.448 840.310 C 609.482 836.647, 609.062 834.522, 608.250 834.251 C 607.563 834.021, 607 833.196, 607 832.417 C 607 831.638, 606.100 831, 605 831 C 603.900 831, 603 830.550, 603 830 C 603 828.831, 579.738 828.592, 578.588 829.750 M 462.500 881 C 462.160 881.550, 461.121 882.004, 460.191 882.008 C 459.261 882.012, 457.938 883.227, 457.250 884.707 C 455.757 887.922, 455.585 895, 457 895 C 457.550 895, 458 895.594, 458 896.320 C 458 897.929, 463.284 904, 464.684 904 C 465.237 904, 466.505 904.900, 467.500 906 C 468.495 907.100, 469.860 908, 470.533 908 C 471.205 908, 472.315 908.675, 473 909.500 C 473.685 910.325, 475.315 911, 476.622 911 C 477.930 911, 479 911.450, 479 912 C 479 912.550, 479.873 913, 480.941 913 C 482.009 913, 483.124 913.391, 483.419 913.869 C 483.884 914.621, 490.159 916.195, 493.679 916.443 C 494.328 916.488, 495.191 916.857, 495.596 917.263 C 496.002 917.668, 498.707 918, 501.608 918 C 504.509 918, 507.160 918.450, 507.500 919 C 507.840 919.550, 511.466 920, 515.559 920 C 519.853 920, 523 919.577, 523 919 C 523 918.450, 524.989 918, 527.419 918 C 532.095 918, 543.315 915.596, 546.236 913.968 C 547.191 913.435, 548.616 913, 549.403 913 C 550.190 913, 550.983 912.663, 551.167 912.250 C 551.350 911.837, 553.075 910.715, 555 909.756 C 560.343 907.094, 562.003 905.877, 566.945 901 C 571.632 896.375, 574 892.347, 574 889 C 574 885.754, 571.769 882, 569.839 882 C 568.828 882, 568 881.550, 568 881 C 568 880.346, 549.853 880, 515.559 880 C 481.677 880, 462.899 880.354, 462.500 881" stroke="none" fill="#0e2c41" fill-rule="evenodd"/><path d="M 349.500 177 C 349.124 177.608, 350.570 177.994, 353.191 177.985 C 356.342 177.973, 357.097 177.709, 356 177 C 354.037 175.731, 350.284 175.731, 349.500 177 M 672.500 177 C 672.129 177.601, 673.403 177.994, 675.691 177.985 C 678.519 177.973, 679.113 177.720, 678 177 C 676.044 175.736, 673.281 175.736, 672.500 177 M 503.812 282.511 C 503.434 282.895, 498.484 283.584, 492.812 284.043 C 481.875 284.927, 477.649 285.525, 472 286.989 C 470.075 287.488, 464.995 288.665, 460.711 289.606 C 456.427 290.547, 452.688 291.696, 452.402 292.159 C 452.116 292.621, 451.132 293, 450.216 293 C 447.865 293, 435.026 298.027, 431.846 300.193 C 430.386 301.187, 428.955 302, 428.665 302 C 426.723 302, 413.882 308.921, 405.807 314.320 C 395.108 321.473, 395.309 321.325, 389 326.731 C 386.525 328.851, 382.137 332.521, 379.250 334.886 C 376.363 337.251, 374 339.600, 374 340.105 C 374 340.610, 371.129 344.056, 367.619 347.762 C 361.089 354.657, 349.961 368.310, 348.676 371 C 348.282 371.825, 346.174 375.650, 343.990 379.500 C 341.806 383.350, 339.056 388.525, 337.877 391 C 332.974 401.300, 330 408.110, 330 409.039 C 330 409.582, 329.582 410.809, 329.072 411.764 C 327.657 414.412, 325 423.622, 325 425.879 C 325 426.981, 324.598 428.131, 324.106 428.435 C 323.147 429.027, 323.137 429.085, 319.972 451 C 318.218 463.147, 317.965 468.502, 318.413 484 C 318.707 494.175, 319.663 507, 320.537 512.500 C 321.411 518, 322.371 524.190, 322.669 526.256 C 322.967 528.322, 323.614 530.261, 324.106 530.565 C 324.598 530.869, 325 532.415, 325 534 C 325 535.585, 325.399 537.129, 325.887 537.430 C 326.374 537.731, 327.080 539.613, 327.455 541.612 C 327.830 543.611, 328.519 545.978, 328.987 546.873 C 330.661 550.079, 334 557.993, 334 558.757 C 334 560.037, 343.969 578.920, 347.542 584.408 C 356.559 598.258, 381.115 627.743, 385.864 630.423 C 386.764 630.931, 388.088 632.168, 388.807 633.173 C 389.525 634.178, 390.558 635, 391.100 635 C 391.643 635, 393.301 636.125, 394.783 637.500 C 396.266 638.875, 397.818 640, 398.232 640 C 398.646 640, 400.001 640.880, 401.242 641.955 C 404.255 644.564, 419.861 654, 421.163 654 C 421.728 654, 423.386 654.820, 424.846 655.822 C 428.809 658.544, 434.529 661, 436.901 661 C 438.056 661, 439 661.340, 439 661.756 C 439 663.093, 452.387 668, 456.035 668 C 457.116 668, 458 668.450, 458 669 C 458 669.550, 459.548 670, 461.441 670 C 463.334 670, 465.160 670.450, 465.500 671 C 465.840 671.550, 467.471 672, 469.125 672 C 470.778 672, 473.043 672.488, 474.157 673.084 C 476.971 674.590, 498.647 676.256, 516 676.299 C 532.191 676.340, 555.122 674.540, 557.994 673.003 C 559.025 672.452, 560.997 672, 562.375 672 C 563.754 672, 565.160 671.550, 565.500 671 C 565.840 670.450, 567.640 670, 569.500 670 C 571.360 670, 573.136 669.589, 573.446 669.087 C 573.757 668.585, 575.903 667.854, 578.217 667.463 C 580.530 667.073, 583.115 666.415, 583.962 666.002 C 584.808 665.588, 587.455 664.294, 589.845 663.125 C 592.234 661.956, 594.754 661, 595.446 661 C 596.137 661, 598.699 659.938, 601.139 658.641 C 603.580 657.343, 606.684 655.698, 608.038 654.985 C 609.392 654.272, 611.175 653.296, 612 652.816 C 612.825 652.335, 614.288 651.678, 615.250 651.354 C 616.212 651.031, 617 650.369, 617 649.883 C 617 649.398, 617.460 649, 618.021 649 C 619.235 649, 627.354 643.829, 627.833 642.750 C 628.017 642.337, 628.804 642, 629.583 642 C 630.363 642, 631 641.647, 631 641.216 C 631 640.784, 632.237 639.690, 633.750 638.783 C 635.263 637.877, 638.497 635.314, 640.937 633.088 C 643.378 630.862, 645.536 629.202, 645.732 629.399 C 646.233 629.899, 655.631 619.779, 661.889 612 C 664.766 608.425, 667.930 604.600, 668.920 603.500 C 670.457 601.794, 678.315 590.319, 681.500 585.129 C 682.050 584.233, 682.725 583.275, 683 582.999 C 683.625 582.374, 686.053 577.902, 691.688 567 C 695.552 559.525, 701.235 545.295, 702.671 539.500 C 702.944 538.400, 703.542 536.600, 704 535.500 C 705.856 531.044, 708.183 519.841, 710.232 505.500 C 711.641 495.645, 711.607 463, 710.180 453.500 C 708.144 439.954, 704.835 424.501, 703.734 423.401 C 703.330 422.997, 703 421.611, 703 420.320 C 703 419.029, 702.605 417.191, 702.123 416.236 C 701.640 415.281, 700.688 412.700, 700.008 410.500 C 698.823 406.673, 698.018 404.639, 694.368 396.250 C 687.725 380.981, 677.077 363.924, 667.036 352.465 C 665.091 350.246, 662.375 347.090, 661 345.452 C 658.470 342.439, 644.690 330.033, 639.891 326.449 C 638.456 325.377, 634.763 322.587, 631.684 320.250 C 628.605 317.913, 625.654 316, 625.126 316 C 624.598 316, 624.017 315.654, 623.833 315.231 C 623.446 314.337, 610.131 306.327, 605 303.900 C 592.099 297.800, 587.695 295.881, 583.380 294.482 C 580.696 293.611, 577.600 292.521, 576.500 292.060 C 570.292 289.454, 551.188 285.624, 536 283.941 C 523.429 282.548, 504.601 281.712, 503.812 282.511 M 601.319 446.884 C 591.649 453.889, 591.026 469.281, 600.155 475.608 C 608.556 481.429, 621.411 477.980, 625.904 468.698 C 628.401 463.540, 628.536 460.219, 626.452 455.232 C 621.932 444.413, 610.138 440.496, 601.319 446.884 M 418.500 447.861 C 414.079 450.591, 411.929 453.387, 410.950 457.677 C 408.415 468.778, 416.274 480, 426.583 480 C 432.249 480, 435.081 478.825, 439.892 474.479 C 447.001 468.056, 447.682 460.124, 441.709 453.322 C 435.682 446.456, 424.886 443.916, 418.500 447.861 M 535.286 488.095 C 526.234 496.344, 522.205 498.411, 516.530 497.718 C 511.160 497.063, 508.623 495.858, 501.500 490.580 C 495 485.764, 492.937 485.166, 490.974 487.532 C 489.980 488.729, 489.953 489.901, 490.850 492.892 C 493.875 502.990, 507.751 513.033, 518.616 512.988 C 527.130 512.953, 538.952 507.193, 544.321 500.465 C 549.502 493.971, 551.682 485.082, 548.800 482.200 C 546.237 479.637, 543.034 481.034, 535.286 488.095 M 461.250 763.735 C 463.863 763.941, 468.137 763.941, 470.750 763.735 C 473.363 763.529, 471.225 763.360, 466 763.360 C 460.775 763.360, 458.637 763.529, 461.250 763.735 M 490.750 763.723 C 492.538 763.945, 495.462 763.945, 497.250 763.723 C 499.038 763.502, 497.575 763.320, 494 763.320 C 490.425 763.320, 488.962 763.502, 490.750 763.723 M 437.500 791 L 430.500 791.647 438.250 791.823 C 442.868 791.929, 446 791.596, 446 791 C 446 790.450, 445.663 790.079, 445.250 790.177 C 444.837 790.274, 441.350 790.644, 437.500 791 M 570 808.034 C 570 808.701, 571.868 808.830, 575.250 808.399 C 582.344 807.494, 582.491 807, 575.667 807 C 572.430 807, 570 807.444, 570 808.034 M 541 810 C 541 811.177, 543.012 811.193, 548.500 810.057 C 552.457 809.239, 552.439 809.229, 546.750 809.115 C 543.507 809.050, 541 809.436, 541 810 M 464.527 814.957 C 464.162 815.547, 465.959 815.685, 469.218 815.317 C 476.159 814.532, 476.566 814, 470.226 814 C 467.416 814, 464.852 814.431, 464.527 814.957 M 570.500 830 C 566.631 830.693, 566.686 830.721, 572.191 830.858 C 575.321 830.936, 578.160 830.550, 578.500 830 C 579.182 828.896, 576.666 828.896, 570.500 830 M 458.500 837 L 453.500 837.686 459.750 837.843 C 463.355 837.934, 466 837.577, 466 837 C 466 836.450, 465.438 836.071, 464.750 836.157 C 464.063 836.244, 461.250 836.623, 458.500 837 M 560 856.009 C 560 856.645, 562.122 856.778, 565.750 856.370 C 573.481 855.499, 573.633 855, 566.167 855 C 562.687 855, 560 855.439, 560 856.009 M 502.500 859 C 501.780 860.166, 505.361 860.166, 509 859 C 511.135 858.316, 510.888 858.185, 507.309 858.100 C 505.004 858.045, 502.840 858.450, 502.500 859" stroke="none" fill="#fac217" fill-rule="evenodd"/></svg>